<svg width="800" height="800" viewBox="0 0 800 800" fill="none" xmlns="http://www.w3.org/2000/svg">
<path d="M705.113 321.244C701.615 309.744 696.789 299.451 690.633 290.364C684.618 281.135 677.343 273.255 668.81 266.724C660.416 260.193 650.763 255.295 639.852 252.03C628.94 248.622 617.049 246.918 604.179 246.918C581.096 246.918 560.532 252.811 542.485 264.595C524.439 276.379 510.239 293.7 499.887 316.559C489.675 339.276 484.569 366.961 484.569 399.617C484.569 432.556 489.675 460.455 499.887 483.313C510.1 506.172 524.299 523.564 542.485 535.49C560.671 547.275 581.796 553.167 605.857 553.167C627.681 553.167 646.567 548.907 662.515 540.389C678.603 531.87 690.983 519.802 699.657 504.184C708.33 488.424 712.667 469.967 712.667 448.812L730.293 451.581H613.622V389.82H788V442.21C788 479.551 780.166 511.851 764.498 539.111C748.83 566.371 727.286 587.384 699.866 602.149C672.447 616.773 640.971 624.085 605.438 624.085C565.848 624.085 531.084 615.069 501.146 597.038C471.349 578.865 448.056 553.096 431.269 519.731C414.622 486.224 406.298 446.47 406.298 400.468C406.298 365.258 411.194 333.809 420.987 306.124C430.919 278.438 444.769 254.94 462.535 235.631C480.302 216.18 501.146 201.414 525.068 191.334C548.99 181.111 575.011 176 603.129 176C626.911 176 649.085 179.549 669.649 186.648C690.214 193.605 708.47 203.544 724.418 216.464C740.506 229.384 753.726 244.718 764.078 262.465C774.43 280.212 781.215 299.806 784.433 321.244H705.113Z" fill="#1476C4"/>
<path d="M90.97 624.083H8L159.064 192.594H255.024L406.298 624.083H323.328L208.72 281.083H205.368L90.97 624.083ZM93.6938 454.901H319.976V517.686H93.6938V454.901Z" fill="#1476C4"/>
</svg>
