<svg width="47" height="27" viewBox="0 0 47 27" fill="none" xmlns="http://www.w3.org/2000/svg">
<path d="M42.0055 8.7519C41.7948 8.05894 41.5039 7.43869 41.133 6.89116C40.7706 6.33508 40.3322 5.86027 39.818 5.46673C39.3123 5.07319 38.7306 4.77804 38.0731 4.58127C37.4156 4.37595 36.6991 4.27329 35.9236 4.27329C34.5327 4.27329 33.2936 4.62833 32.2062 5.3384C31.1187 6.04848 30.2631 7.09221 29.6394 8.46958C29.024 9.8384 28.7163 11.5067 28.7163 13.4743C28.7163 15.4591 29.024 17.1402 29.6394 18.5176C30.2547 19.895 31.1103 20.943 32.2062 21.6616C33.302 22.3717 34.5749 22.7267 36.0247 22.7267C37.3397 22.7267 38.4777 22.4701 39.4387 21.9568C40.4081 21.4434 41.1541 20.7163 41.6767 19.7752C42.1994 18.8256 42.4607 17.7134 42.4607 16.4387L43.5228 16.6055H36.4926V12.884H47V16.0409C47 18.2909 46.5279 20.2372 45.5838 21.8798C44.6397 23.5223 43.3416 24.7885 41.6894 25.6782C40.0372 26.5594 38.1406 27 35.9995 27C33.6139 27 31.5192 26.4568 29.7152 25.3702C27.9197 24.2752 26.5162 22.7224 25.5047 20.712C24.5016 18.693 24 16.2975 24 13.5257C24 11.404 24.295 9.50903 24.8851 7.84078C25.4836 6.17253 26.3181 4.75665 27.3887 3.59316C28.4592 2.4211 29.7152 1.53137 31.1567 0.923955C32.5981 0.307985 34.166 0 35.8604 0C37.2934 0 38.6295 0.213878 39.8686 0.641635C41.1078 1.06084 42.2078 1.6597 43.1688 2.43821C44.1382 3.21673 44.9348 4.14068 45.5585 5.21008C46.1823 6.27947 46.5912 7.46008 46.785 8.7519H42.0055Z" fill="#1476C4"/>
<path d="M4.99947 27H0L9.10258 1H14.8848L24 27H19.0005L12.0947 6.33203H11.8927L4.99947 27ZM5.1636 16.8057H18.7985V20.5889H5.1636V16.8057Z" fill="#1476C4"/>
</svg>
