<svg width="300" height="300" viewBox="0 0 300 300" fill="none" xmlns="http://www.w3.org/2000/svg">
<path d="M264.417 120.467C263.106 116.154 261.296 112.294 258.988 108.886C256.732 105.426 254.004 102.471 250.804 100.022C247.656 97.5725 244.036 95.7357 239.945 94.5111C235.853 93.2333 231.393 92.5944 226.567 92.5944C217.911 92.5944 210.199 94.804 203.432 99.223C196.665 103.642 191.34 110.138 187.458 118.71C183.628 127.228 181.713 137.611 181.713 149.856C181.713 162.208 183.628 172.67 187.458 181.242C191.287 189.814 196.612 196.337 203.432 200.809C210.252 205.228 218.173 207.438 227.197 207.438C235.38 207.438 242.463 205.84 248.443 202.646C254.476 199.451 259.119 194.926 262.371 189.069C265.624 183.159 267.25 176.238 267.25 168.305L273.86 169.343H230.108V146.183H295.5V165.829C295.5 179.832 292.562 191.944 286.687 202.167C280.811 212.389 272.732 220.269 262.45 225.806C252.168 231.29 240.364 234.032 227.039 234.032C212.193 234.032 199.157 230.651 187.93 223.889C176.756 217.074 168.021 207.411 161.726 194.899C155.483 182.334 152.362 167.426 152.362 150.176C152.362 136.972 154.198 125.179 157.87 114.796C161.595 104.414 166.788 95.6026 173.451 88.3617C180.113 81.0675 187.93 75.5303 196.901 71.7501C205.871 67.9167 215.629 66 226.174 66C235.092 66 243.407 67.3311 251.119 69.9932C258.83 72.602 265.676 76.329 271.657 81.174C277.69 86.019 282.647 91.7692 286.529 98.4244C290.411 105.08 292.956 112.427 294.162 120.467H264.417Z" fill="#1476C4"/>
<path d="M34.1137 234.031H3L59.649 72.2227H95.6341L152.362 234.031H121.248L78.2701 105.406H77.013L34.1137 234.031ZM35.1352 170.588H119.991V194.132H35.1352V170.588Z" fill="#1476C4"/>
</svg>
