<svg width="18" height="18" viewBox="0 0 18 18" fill="none" xmlns="http://www.w3.org/2000/svg">
<path d="M17.64 9.20456C17.64 8.56637 17.5827 7.95274 17.4764 7.36365H9V10.8491H13.8436C13.6309 11.97 12.9927 12.9191 12.0355 13.5573V15.8236H14.9564C16.6582 14.2527 17.64 11.9455 17.64 9.20456Z" fill="#4285F4"/>
<path d="M8.99994 18C11.4299 18 13.4672 17.1981 14.9563 15.8236L12.0354 13.5572C11.2336 14.0972 10.2108 14.4245 8.99994 14.4245C6.65994 14.4245 4.67176 12.8454 3.95994 10.7181H0.965393V13.0418C2.4463 15.979 5.48176 18 8.99994 18Z" fill="#34A853"/>
<path d="M3.96 10.7099C3.78 10.1699 3.67364 9.59722 3.67364 8.99994C3.67364 8.40267 3.78 7.82994 3.96 7.28994V4.96631H0.965455C0.351818 6.17722 0 7.54358 0 8.99994C0 10.4563 0.351818 11.8227 0.965455 13.0336L3.29727 11.2172L3.96 10.7099Z" fill="#FBBC05"/>
<path d="M8.99994 3.58364C10.3254 3.58364 11.5036 4.04182 12.4445 4.92545L15.0218 2.34818C13.459 0.891818 11.4299 0 8.99994 0C5.48176 0 2.4463 2.02091 0.965393 4.96636L3.95994 7.29C4.67176 5.16273 6.65994 3.58364 8.99994 3.58364Z" fill="#EA4335"/>
</svg>
