<svg width="16" height="16" viewBox="0 0 16 16" fill="none" xmlns="http://www.w3.org/2000/svg">
<g opacity="0.3">
<rect x="12.9232" width="3.07692" height="3.07692" rx="1" fill="white"/>
<rect x="8.61546" width="3.07692" height="3.07692" rx="1" fill="white"/>
<rect x="4.30772" width="3.07692" height="3.07692" rx="1" fill="white"/>
<rect width="3.07692" height="3.07692" rx="1" fill="white"/>
<rect x="12.9232" y="4.30762" width="3.07692" height="3.07692" rx="1" fill="white"/>
<rect x="8.61546" y="4.30762" width="3.07692" height="3.07692" rx="1" fill="white"/>
<rect x="4.30772" y="4.30762" width="3.07692" height="3.07692" rx="1" fill="white"/>
<rect y="4.30762" width="3.07692" height="3.07692" rx="1" fill="white"/>
<rect x="12.9232" y="8.61548" width="3.07692" height="3.07692" rx="1" fill="white"/>
<rect x="8.61546" y="8.61548" width="3.07692" height="3.07692" rx="1" fill="white"/>
<rect x="4.30772" y="8.61548" width="3.07692" height="3.07692" rx="1" fill="white"/>
<rect y="8.61548" width="3.07692" height="3.07692" rx="1" fill="white"/>
<rect x="12.9232" y="12.9231" width="3.07692" height="3.07692" rx="1" fill="white"/>
<rect x="8.61546" y="12.9231" width="3.07692" height="3.07692" rx="1" fill="white"/>
<rect x="4.30772" y="12.9231" width="3.07692" height="3.07692" rx="1" fill="white"/>
<rect y="12.9231" width="3.07692" height="3.07692" rx="1" fill="white"/>
</g>
</svg>
