<svg width="16" height="16" viewBox="0 0 16 16" fill="none" xmlns="http://www.w3.org/2000/svg">
<path d="M14.9672 14.9672C14.9353 14.9991 14.8976 15.0077 14.8551 14.9931L11.4526 13.8239C11.3935 13.8036 11.332 13.7935 11.2707 13.7935C11.1804 13.7935 11.0904 13.8154 11.009 13.8585C10.0375 14.3724 8.9397 14.645 7.83418 14.6467C7.83054 14.6467 7.82724 14.6467 7.8236 14.6467C4.11932 14.6467 1.05958 11.6376 1.00089 7.93423C0.971324 6.06911 1.68079 4.31623 2.99856 2.99847C4.31632 1.68071 6.0695 0.971497 7.93437 1.00088C11.6413 1.05968 14.6525 4.12507 14.6468 7.83419C14.645 8.93971 14.3725 10.0376 13.8586 11.009C13.7862 11.1457 13.7737 11.3063 13.824 11.4526L14.9932 14.8551C15.0077 14.8977 14.999 14.9355 14.9672 14.9672Z" stroke="white" stroke-width="1.4" stroke-linecap="round" stroke-linejoin="round"/>
</svg>
