<svg width="180" height="27" viewBox="0 0 180 27" fill="none" xmlns="http://www.w3.org/2000/svg">
<path d="M15.1018 7.57333C14.983 6.4542 14.4826 5.58282 13.6005 4.95918C12.7269 4.33555 11.5903 4.02373 10.1908 4.02373C9.20696 4.02373 8.36302 4.17323 7.65903 4.47224C6.95505 4.77124 6.41645 5.17703 6.04326 5.68961C5.67006 6.20218 5.47922 6.78738 5.47074 7.44518C5.47074 7.99193 5.59372 8.46607 5.83969 8.86758C6.09415 9.2691 6.43766 9.61082 6.87023 9.89274C7.3028 10.1661 7.78202 10.3968 8.30789 10.5847C8.83376 10.7727 9.36387 10.9307 9.89822 11.0589L12.341 11.6739C13.3249 11.9046 14.2706 12.2164 15.1781 12.6094C16.0941 13.0024 16.9126 13.4979 17.6336 14.0959C18.363 14.6939 18.9398 15.4158 19.3639 16.2615C19.788 17.1073 20 18.0982 20 19.2345C20 20.7722 19.6098 22.1262 18.8295 23.2966C18.0492 24.4585 16.9211 25.3683 15.4453 26.0261C13.9779 26.6754 12.201 27 10.1145 27C8.08736 27 6.3274 26.6839 4.83461 26.0517C3.3503 25.4196 2.1883 24.4969 1.3486 23.2838C0.517388 22.0707 0.0678541 20.5928 0 18.85H4.64377C4.71162 19.7641 4.99152 20.5244 5.48346 21.131C5.9754 21.7375 6.61578 22.1903 7.40458 22.4893C8.20187 22.7883 9.09245 22.9378 10.0763 22.9378C11.1026 22.9378 12.0017 22.7841 12.7735 22.4765C13.5539 22.1604 14.1645 21.7247 14.6056 21.1694C15.0466 20.6056 15.2714 19.9478 15.2799 19.196C15.2714 18.5126 15.0721 17.9487 14.6819 17.5045C14.2918 17.0517 13.7447 16.6758 13.0407 16.3768C12.3452 16.0693 11.531 15.7959 10.598 15.5567L7.63359 14.7879C5.4877 14.2326 3.79135 13.3911 2.54453 12.2634C1.30619 11.1272 0.687023 9.61936 0.687023 7.73991C0.687023 6.19364 1.10263 4.83958 1.93384 3.67774C2.77354 2.5159 3.91433 1.61462 5.35623 0.973896C6.79813 0.324632 8.43087 0 10.2545 0C12.1035 0 13.7235 0.324632 15.1145 0.973896C16.514 1.61462 17.6124 2.50736 18.4097 3.65211C19.207 4.78832 19.6183 6.0954 19.6438 7.57333H15.1018Z" fill="#1476C4"/>
<path d="M175.005 8.7519C174.795 8.05894 174.504 7.43869 174.133 6.89116C173.771 6.33508 173.332 5.86027 172.818 5.46673C172.312 5.07319 171.731 4.77804 171.073 4.58127C170.416 4.37595 169.699 4.27329 168.924 4.27329C167.533 4.27329 166.294 4.62833 165.206 5.3384C164.119 6.04848 163.263 7.09221 162.639 8.46958C162.024 9.8384 161.716 11.5067 161.716 13.4743C161.716 15.4591 162.024 17.1402 162.639 18.5176C163.255 19.895 164.11 20.943 165.206 21.6616C166.302 22.3717 167.575 22.7267 169.025 22.7267C170.34 22.7267 171.478 22.4701 172.439 21.9568C173.408 21.4434 174.154 20.7163 174.677 19.7752C175.199 18.8256 175.461 17.7134 175.461 16.4387L176.523 16.6055H169.493V12.884H180V16.0409C180 18.2909 179.528 20.2372 178.584 21.8798C177.64 23.5223 176.342 24.7885 174.689 25.6782C173.037 26.5594 171.141 27 168.999 27C166.614 27 164.519 26.4568 162.715 25.3702C160.92 24.2752 159.516 22.7224 158.505 20.712C157.502 18.693 157 16.2975 157 13.5257C157 11.404 157.295 9.50903 157.885 7.84078C158.484 6.17253 159.318 4.75665 160.389 3.59316C161.459 2.4211 162.715 1.53137 164.157 0.923955C165.598 0.307985 167.166 0 168.86 0C170.293 0 171.629 0.213878 172.869 0.641635C174.108 1.06084 175.208 1.6597 176.169 2.43821C177.138 3.21673 177.935 4.14068 178.559 5.21008C179.182 6.27947 179.591 7.46008 179.785 8.7519H175.005Z" fill="#1476C4"/>
<path d="M137.999 27H133L142.103 1H147.885L157 27H152.001L145.095 6.33203H144.893L137.999 27ZM138.164 16.8057H151.799V20.5889H138.164V16.8057Z" fill="#1476C4"/>
<path d="M115 7L108.044 27H102.956L96 7H100.909L105.398 21.8568H105.602L110.104 7H115Z" fill="#1476C4"/>
<path d="M84.5947 27C83.3459 27 82.2211 26.7816 81.2204 26.3447C80.2282 25.8994 79.4413 25.2441 78.8596 24.3787C78.2865 23.5133 78 22.4463 78 21.1777C78 20.0855 78.2053 19.1823 78.6158 18.4682C79.0264 17.754 79.5867 17.1827 80.2966 16.7543C81.0065 16.3258 81.8063 16.0023 82.6958 15.7839C83.594 15.557 84.522 15.3932 85.48 15.2924C86.6347 15.1748 87.5713 15.0697 88.2898 14.9773C89.0083 14.8765 89.5301 14.7253 89.8551 14.5236C90.1887 14.3136 90.3555 13.9901 90.3555 13.5532V13.4776C90.3555 12.5282 90.0689 11.7931 89.4958 11.2722C88.9228 10.7513 88.0974 10.4909 87.0196 10.4909C85.882 10.4909 84.9796 10.7345 84.3125 11.2218C83.6538 11.7091 83.2091 12.2846 82.9781 12.9483L78.6415 12.3434C78.9836 11.1672 79.5482 10.1842 80.3351 9.39445C81.122 8.5963 82.0843 7.99979 83.2219 7.60491C84.3595 7.20164 85.6169 7 86.994 7C87.9434 7 88.8886 7.10922 89.8294 7.32766C90.7703 7.5461 91.6299 7.90737 92.4083 8.41147C93.1867 8.90716 93.8111 9.58349 94.2815 10.4405C94.7605 11.2974 95 12.3686 95 13.6541V26.6093H90.5351V23.9502H90.3811C90.0989 24.4879 89.7011 24.992 89.1879 25.4625C88.6833 25.9246 88.046 26.2985 87.2762 26.5841C86.515 26.8614 85.6211 27 84.5947 27ZM85.8008 23.6478C86.7331 23.6478 87.5414 23.4671 88.2257 23.1059C88.9099 22.7362 89.436 22.2489 89.8038 21.644C90.1801 21.0391 90.3683 20.3795 90.3683 19.6654V17.3844C90.2229 17.502 89.9748 17.6112 89.6242 17.712C89.282 17.8129 88.8971 17.9011 88.4694 17.9767C88.0418 18.0523 87.6184 18.1195 87.1992 18.1783C86.7801 18.2371 86.4166 18.2875 86.1087 18.3296C85.4158 18.422 84.7957 18.5732 84.2483 18.7832C83.7009 18.9933 83.2689 19.2873 82.9525 19.6654C82.636 20.0351 82.4777 20.514 82.4777 21.1021C82.4777 21.9422 82.7899 22.5766 83.4143 23.005C84.0387 23.4335 84.8342 23.6478 85.8008 23.6478Z" fill="#1476C4"/>
<path d="M121.595 27C120.346 27 119.221 26.7816 118.22 26.3447C117.228 25.8994 116.441 25.2441 115.86 24.3787C115.287 23.5133 115 22.4463 115 21.1777C115 20.0855 115.205 19.1823 115.616 18.4682C116.026 17.754 116.587 17.1827 117.297 16.7543C118.007 16.3258 118.806 16.0023 119.696 15.7839C120.594 15.557 121.522 15.3932 122.48 15.2924C123.635 15.1748 124.571 15.0697 125.29 14.9773C126.008 14.8765 126.53 14.7253 126.855 14.5236C127.189 14.3136 127.355 13.9901 127.355 13.5532V13.4776C127.355 12.5282 127.069 11.7931 126.496 11.2722C125.923 10.7513 125.097 10.4909 124.02 10.4909C122.882 10.4909 121.98 10.7345 121.312 11.2218C120.654 11.7091 120.209 12.2846 119.978 12.9483L115.642 12.3434C115.984 11.1672 116.548 10.1842 117.335 9.39445C118.122 8.5963 119.084 7.99979 120.222 7.60491C121.359 7.20164 122.617 7 123.994 7C124.943 7 125.889 7.10922 126.829 7.32766C127.77 7.5461 128.63 7.90737 129.408 8.41147C130.187 8.90716 130.811 9.58349 131.282 10.4405C131.761 11.2974 132 12.3686 132 13.6541V26.6093H127.535V23.9502H127.381C127.099 24.4879 126.701 24.992 126.188 25.4625C125.683 25.9246 125.046 26.2985 124.276 26.5841C123.515 26.8614 122.621 27 121.595 27ZM122.801 23.6478C123.733 23.6478 124.541 23.4671 125.226 23.1059C125.91 22.7362 126.436 22.2489 126.804 21.644C127.18 21.0391 127.368 20.3795 127.368 19.6654V17.3844C127.223 17.502 126.975 17.6112 126.624 17.712C126.282 17.8129 125.897 17.9011 125.469 17.9767C125.042 18.0523 124.618 18.1195 124.199 18.1783C123.78 18.2371 123.417 18.2875 123.109 18.3296C122.416 18.422 121.796 18.5732 121.248 18.7832C120.701 18.9933 120.269 19.2873 119.952 19.6654C119.636 20.0351 119.478 20.514 119.478 21.1021C119.478 21.9422 119.79 22.5766 120.414 23.005C121.039 23.4335 121.834 23.6478 122.801 23.6478Z" fill="#1476C4"/>
<path d="M64.5317 15.5742V27H60V1H64.4315V10.8135H64.6568C65.1075 9.71321 65.8044 8.8457 66.7474 8.21094C67.6988 7.56771 68.9089 7.24609 70.3778 7.24609C71.7131 7.24609 72.8773 7.52962 73.8704 8.09668C74.8635 8.66374 75.6313 9.49316 76.1738 10.585C76.7246 11.6768 77 13.0098 77 14.584V27H72.4683V15.2949C72.4683 13.9831 72.1345 12.9632 71.4669 12.2354C70.8076 11.499 69.8812 11.1309 68.6878 11.1309C67.8866 11.1309 67.1689 11.3086 66.5346 11.6641C65.9087 12.0111 65.4163 12.5146 65.0574 13.1748C64.7069 13.835 64.5317 14.6348 64.5317 15.5742Z" fill="#1476C4"/>
<path d="M50.5036 27C48.5237 27 46.8235 26.5755 45.4032 25.7264C43.9914 24.8773 42.9024 23.7045 42.1363 22.2081C41.3788 20.7032 41 18.9714 41 17.0126C41 15.0454 41.3874 13.3094 42.1621 11.8045C42.9369 10.2913 44.0301 9.11433 45.4419 8.27364C46.8623 7.42455 48.5409 7 50.4778 7C52.0875 7 53.5122 7.29004 54.7518 7.87011C56 8.44178 56.9943 9.25305 57.7346 10.3039C58.4749 11.3464 58.8967 12.5654 59 13.9609H54.5323C54.3515 13.0277 53.9211 12.2501 53.241 11.628C52.5696 10.9975 51.67 10.6822 50.5423 10.6822C49.5868 10.6822 48.7475 10.9344 48.0244 11.4388C47.3013 11.9348 46.7374 12.6494 46.3329 13.5826C45.9369 14.5158 45.7389 15.6339 45.7389 16.9369C45.7389 18.2568 45.9369 19.3918 46.3329 20.3417C46.7288 21.2833 47.2841 22.0105 47.9986 22.5233C48.7217 23.0277 49.5696 23.2799 50.5423 23.2799C51.231 23.2799 51.8465 23.1538 52.3888 22.9016C52.9397 22.641 53.4003 22.2669 53.7704 21.7793C54.1406 21.2917 54.3945 20.699 54.5323 20.0013H59C58.8881 21.3716 58.4749 22.5864 57.7604 23.6457C57.0459 24.6965 56.0732 25.5204 54.8422 26.1173C53.6112 26.7058 52.165 27 50.5036 27Z" fill="#1476C4"/>
<path d="M30.5 27C28.5639 27 26.8859 26.5839 25.466 25.7516C24.0462 24.9193 22.9447 23.7549 22.1617 22.2585C21.3872 20.7621 21 19.0135 21 17.0126C21 15.0118 21.3872 13.2589 22.1617 11.7541C22.9447 10.2493 24.0462 9.08071 25.466 8.24842C26.8859 7.41614 28.5639 7 30.5 7C32.4361 7 34.1141 7.41614 35.534 8.24842C36.9538 9.08071 38.051 10.2493 38.8254 11.7541C39.6085 13.2589 40 15.0118 40 17.0126C40 19.0135 39.6085 20.7621 38.8254 22.2585C38.051 23.7549 36.9538 24.9193 35.534 25.7516C34.1141 26.5839 32.4361 27 30.5 27ZM30.5258 23.343C31.5756 23.343 32.4534 23.0614 33.159 22.4981C33.8646 21.9264 34.3895 21.1614 34.7337 20.203C35.0865 19.2446 35.2629 18.177 35.2629 17C35.2629 15.8146 35.0865 14.7427 34.7337 13.7844C34.3895 12.8176 33.8646 12.0483 33.159 11.4767C32.4534 10.905 31.5756 10.6192 30.5258 10.6192C29.4502 10.6192 28.5553 10.905 27.841 11.4767C27.1354 12.0483 26.6062 12.8176 26.2534 13.7844C25.9092 14.7427 25.7371 15.8146 25.7371 17C25.7371 18.177 25.9092 19.2446 26.2534 20.203C26.6062 21.1614 27.1354 21.9264 27.841 22.4981C28.5553 23.0614 29.4502 23.343 30.5258 23.343Z" fill="#1476C4"/>
</svg>
