<svg width="16" height="15" viewBox="0 0 16 15" fill="none" xmlns="http://www.w3.org/2000/svg">
<path d="M7.2406 1.49638C7.52155 0.834541 8.47845 0.83454 8.7594 1.49638L10.0913 4.63395C10.2097 4.91297 10.4775 5.10361 10.785 5.12775L14.2421 5.39931C14.9713 5.45659 15.267 6.34827 14.7114 6.81459L12.0775 9.02528C11.8432 9.22186 11.7409 9.53032 11.8125 9.82426L12.6172 13.1297C12.787 13.8269 12.0128 14.378 11.3885 14.0044L8.42871 12.2331C8.16551 12.0755 7.83449 12.0755 7.57129 12.2331L4.61151 14.0044C3.98717 14.378 3.21303 13.8269 3.38277 13.1297L4.18749 9.82426C4.25905 9.53032 4.15676 9.22186 3.92253 9.02528L1.28857 6.81459C0.732964 6.34827 1.02866 5.45659 1.7579 5.39931L5.21503 5.12775C5.52246 5.10361 5.79026 4.91297 5.9087 4.63395L7.2406 1.49638Z" stroke="white" stroke-width="1.4"/>
</svg>
